<?xml version="1.0" encoding="UTF-8" standalone="no"?>
<!-- Created with Inkscape (http://www.inkscape.org/) -->

<svg
   xmlns:dc="http://purl.org/dc/elements/1.1/"
   xmlns:cc="http://creativecommons.org/ns#"
   xmlns:rdf="http://www.w3.org/1999/02/22-rdf-syntax-ns#"
   xmlns:svg="http://www.w3.org/2000/svg"
   xmlns="http://www.w3.org/2000/svg"
   xmlns:sodipodi="http://sodipodi.sourceforge.net/DTD/sodipodi-0.dtd"
   xmlns:inkscape="http://www.inkscape.org/namespaces/inkscape"
   version="1.1"
   id="svg6747"
   xml:space="preserve"
   width="800"
   height="800"
   viewBox="0 0 800 800"
   sodipodi:docname="sun-flame-freesvg.org.svg"
   inkscape:version="0.92.4 (5da689c313, 2019-01-14)"><metadata
     id="metadata6753"><rdf:RDF><cc:Work
         rdf:about=""><dc:format>image/svg+xml</dc:format><dc:type
           rdf:resource="http://purl.org/dc/dcmitype/StillImage" /><dc:title></dc:title></cc:Work></rdf:RDF></metadata><defs
     id="defs6751"><clipPath
       clipPathUnits="userSpaceOnUse"
       id="clipPath6763"><path
         d="M 0,600 H 600 V 0 H 0 Z"
         id="path6761"
         inkscape:connector-curvature="0" /></clipPath><radialGradient
       fx="0"
       fy="0"
       cx="0"
       cy="0"
       r="1"
       gradientUnits="userSpaceOnUse"
       gradientTransform="matrix(279.48178,0,0,-279.48178,300.78711,303.04883)"
       spreadMethod="pad"
       id="radialGradient6783"><stop
         style="stop-opacity:1;stop-color:#ffffff"
         offset="0"
         id="stop6777" /><stop
         style="stop-opacity:1;stop-color:#f68712"
         offset="0.52"
         id="stop6779" /><stop
         style="stop-opacity:1;stop-color:#f1511b"
         offset="1"
         id="stop6781" /></radialGradient></defs><sodipodi:namedview
     pagecolor="#ffffff"
     bordercolor="#666666"
     borderopacity="1"
     objecttolerance="10"
     gridtolerance="10"
     guidetolerance="10"
     inkscape:pageopacity="0"
     inkscape:pageshadow="2"
     inkscape:window-width="1920"
     inkscape:window-height="1018"
     id="namedview6749"
     showgrid="false"
     inkscape:zoom="0.76826687"
     inkscape:cx="423.72881"
     inkscape:cy="396.61017"
     inkscape:window-x="-8"
     inkscape:window-y="-8"
     inkscape:window-maximized="1"
     inkscape:current-layer="g6755" /><g
     id="g6755"
     inkscape:groupmode="layer"
     inkscape:label="flame-1b-publicdomainvectors [Converted]"
     transform="matrix(1.3333333,0,0,-1.3333333,0,800)"><g
       id="g6757"><g
         id="g6759"
         clip-path="url(#clipPath6763)"><g
           id="g6765"><g
             id="g6767"><g
               id="g6773"><g
                 id="g6775"><path
                   d="m 232.907,574.766 c 19.157,-42.898 -1.056,-68.031 -2.309,-69.526 -1.91,0.397 -33.353,7.58 -44.92,53.116 0,0 -3.63,-21.913 1.121,-46.359 l 26.468,-48.48 c 11.552,-2.642 25.061,-8.986 39.517,-22.133 3.19,19.277 9.855,32.633 17.28,41.866 l -9.293,54.447 c -11.43,22.127 -27.864,37.069 -27.864,37.069 m -84.5,-36.758 c 32.049,-34.353 21.09,-64.686 20.391,-66.507 -1.936,-0.246 -34.006,-3.66 -59.734,35.651 0,0 3.684,-21.903 16.115,-43.484 l 12.786,-11.684 -12.786,11.684 c -22.612,10.44 -44.759,12.139 -44.759,12.139 41.468,-22.086 40.952,-54.335 40.883,-56.286 -1.752,-0.86 -30.976,-14.502 -68.074,14.327 0,0 10.595,-19.521 29.361,-35.895 l 50.663,-22.001 c 10.738,5.011 25.296,8.299 44.779,6.806 -9.322,17.171 -12.266,31.801 -12.079,43.651 11.784,1.254 26.622,-0.362 44.563,-8.102 -3.242,19.268 -1.274,34.064 2.751,45.21 l -26.47,48.478 c -17.994,17.218 -38.39,26.013 -38.39,26.013 M 24.221,346.386 c 0,0 16.36,-15.025 39.426,-24.418 l 55.061,-4.36 c 8.53,8.228 21.23,16.067 40.142,20.978 -14.392,13.214 -21.927,26.098 -25.598,37.366 l -50.664,21.999 c -24.775,2.533 -46.272,-3.052 -46.272,-3.052 46.392,-7.425 56.374,-38.093 56.942,-39.96 -1.378,-1.384 -24.589,-23.776 -69.037,-8.553 M 242.125,130.221 c -5.881,10.287 -10.362,24.523 -10.481,44.064 -16.342,-10.708 -30.681,-14.85 -42.504,-15.642 -2.223,11.641 -1.838,26.56 4.392,45.079 -18.933,-4.822 -33.841,-4.082 -45.28,-0.993 1.677,11.733 6.886,25.719 18.792,41.21 -19.471,1.588 -33.331,7.126 -43.148,13.765 5.396,10.552 14.863,22.089 31.155,32.876 -17.903,7.824 -29.214,17.563 -36.343,27.028 l -55.063,4.358 C 39.39,316.317 20.871,304.053 20.871,304.053 67.159,312.094 86.56,286.33 87.703,284.748 86.849,282.993 72.166,254.277 25.185,254.24 c 0,0 20.351,-8.896 45.216,-10.291 l 26.747,6.877 -26.746,-6.879 c -21.108,-13.218 -34.643,-30.83 -34.643,-30.83 41.171,22.634 67.886,4.566 69.481,3.44 -0.238,-1.937 -4.802,-33.866 -49.226,-49.156 0,0 22.137,-1.806 46.109,4.949 l 23.064,15.191 -23.064,-15.191 C 86.452,152.992 79.369,131.941 79.369,131.941 c 31.59,34.775 62.725,26.36 64.598,25.814 0.405,-1.909 6.456,-33.588 -30.598,-62.473 0,0 21.525,5.478 42.005,19.65 l 24.24,31.379 -24.239,-31.38 c -8.539,-23.395 -8.401,-45.608 -8.401,-45.608 18.587,43.151 50.767,45.298 52.715,45.391 1.003,-1.675 17.012,-29.673 -8.654,-69.025 0,0 18.58,12.172 33.348,32.225 z m 35.124,28.595 C 265.268,143.382 253.052,134.81 242.125,130.22 l -17.74,-52.307 c -0.48,-24.9 6.862,-45.862 6.862,-45.862 3.568,46.845 33.308,59.327 35.122,60.048 1.491,-1.259 25.724,-22.543 14.226,-68.097 0,0 13.62,17.546 21.079,41.309 l -0.205,55.232 c -8.903,7.821 -17.762,19.831 -24.22,38.273 m 48.156,0.178 c -6.319,-18.487 -15.092,-30.562 -23.936,-38.451 l 0.206,-55.232 c 7.632,-23.707 21.382,-41.152 21.382,-41.152 -11.835,45.467 12.239,66.928 13.721,68.198 1.82,-0.706 31.651,-12.966 35.566,-59.786 0,0 7.185,21.017 6.522,45.913 L 360.74,130.66 c -10.96,4.507 -23.24,12.988 -35.335,28.334 m 251.354,97.286 c -46.981,-0.312 -61.876,28.295 -62.742,30.042 1.129,1.591 20.34,27.499 66.686,19.801 0,0 -18.609,12.127 -42.906,17.594 l -52.746,-4.564 52.746,4.566 c 22.996,9.565 39.244,24.708 39.244,24.708 -44.334,-15.549 -67.71,6.671 -69.097,8.043 0.551,1.871 10.308,32.613 56.644,40.38 0,0 -21.539,5.427 -46.295,2.711 l -42.747,-18.938 42.745,18.94 c 18.645,16.512 29.097,36.111 29.097,36.111 -36.884,-29.102 -66.209,-15.677 -67.966,-14.829 -0.086,1.949 -0.838,34.193 40.464,56.586 0,0 -22.133,-1.862 -44.665,-12.47 l -30.756,-28.522 30.753,28.524 c 12.272,21.671 15.793,43.602 15.793,43.602 -25.434,-39.502 -57.53,-36.325 -59.468,-36.096 -0.712,1.819 -11.894,32.07 19.898,66.659 0,0 -20.33,-8.946 -38.196,-26.295 l -19.7,-36.724 19.697,36.725 c 4.571,24.482 0.782,46.367 0.782,46.367 -11.231,-45.619 -42.62,-53.037 -44.528,-53.449 -1.264,1.486 -21.663,26.47 -2.824,69.509 0,0 -16.322,-15.063 -27.589,-37.275 l -4.446,-27.257 4.445,27.257 c -3.627,24.64 -14.318,44.109 -14.318,44.109 4.189,-46.796 -23.089,-64.001 -24.759,-65.01 -1.68,0.995 -29.084,18 -25.24,64.825 0,0 -10.549,-19.548 -13.993,-44.213 l 9.292,-54.447 c 10.069,-6.248 20.786,-16.638 30.191,-33.765 9.275,17.196 19.916,27.664 29.937,33.988 7.495,-9.181 14.257,-22.486 17.591,-41.738 14.357,13.252 27.821,19.699 39.352,22.425 4.107,-11.117 6.184,-25.895 3.086,-45.188 17.881,7.871 32.707,9.597 44.499,8.432 0.275,-11.848 -2.559,-26.501 -11.753,-43.742 19.47,1.639 34.049,-1.543 44.826,-6.474 -3.588,-11.296 -11.023,-24.234 -25.319,-37.554 18.945,-4.773 31.704,-12.516 40.296,-20.679 h -0.002 c -7.058,-9.519 -18.295,-19.34 -36.141,-27.301 16.369,-10.662 25.924,-22.129 31.398,-32.639 -9.766,-6.712 -23.584,-12.353 -43.046,-14.085 12.019,-15.404 17.333,-29.351 19.097,-41.069 -11.417,-3.175 -26.317,-4.025 -45.289,0.657 6.369,-18.472 6.863,-33.387 4.73,-45.044 -11.833,0.701 -26.201,4.738 -42.623,15.325 0.027,-19.537 -4.348,-33.809 -10.154,-44.139 l 18.129,-52.176 c 14.916,-19.943 33.587,-31.975 33.587,-31.975 -25.959,39.16 -10.159,67.275 -9.168,68.956 1.95,-0.077 34.147,-1.986 53.052,-44.996 0,0 -0.027,22.21 -8.738,45.543 l -13.272,16.92 13.272,-16.92 c 20.586,-14.021 42.152,-19.34 42.152,-19.34 -37.269,28.61 -31.451,60.334 -31.063,62.245 1.871,0.56 32.941,9.206 64.789,-25.333 0,0 -7.239,20.998 -23.054,40.237 l -11.343,7.351 11.344,-7.351 c 24.02,-6.577 46.146,-4.604 46.146,-4.604 -44.536,14.958 -49.336,46.851 -49.59,48.786 1.587,1.139 28.168,19.405 69.505,-2.925 0,0 -13.664,17.511 -34.871,30.573 l -30.135,7.514 30.138,-7.512 c 24.855,1.578 45.139,10.627 45.139,10.627"
                   style="fill:url(#radialGradient6783);stroke:none"
                   id="path6785"
                   inkscape:connector-curvature="0" /></g></g></g></g></g></g></g></svg>